<?xml version="1.0" encoding="utf-8"?>
<!-- Generator: Adobe Illustrator 22.0.1, SVG Export Plug-In . SVG Version: 6.00 Build 0)  -->
<svg version="1.1" id="Layer_1" xmlns="http://www.w3.org/2000/svg" xmlns:xlink="http://www.w3.org/1999/xlink" x="0px" y="0px"
	 viewBox="0 0 50 50" style="enable-background:new 0 0 50 50;" xml:space="preserve">
<style type="text/css">
	.st0{fill:url(#XMLID_2_);}
	.st1{fill:url(#XMLID_3_);}
	.st2{fill:url(#XMLID_4_);}
</style>
<g id="XMLID_13_">
	
		<linearGradient id="XMLID_2_" gradientUnits="userSpaceOnUse" x1="25" y1="-143.8543" x2="25" y2="-94.3883" gradientTransform="matrix(1 0 0 -1 0 -94)">
		<stop  offset="0" style="stop-color:#E09B3D"/>
		<stop  offset="0.3" style="stop-color:#C74C4D"/>
		<stop  offset="0.6" style="stop-color:#C21975"/>
		<stop  offset="1" style="stop-color:#7024C4"/>
	</linearGradient>
	<path id="XMLID_17_" class="st0" d="M35.1,0H14.9C6.7,0,0,6.7,0,14.9v20.2C0,43.3,6.7,50,14.9,50h20.2C43.3,50,50,43.3,50,35.1
		V14.9C50,6.7,43.3,0,35.1,0z M45,35.1c0,5.4-4.4,9.9-9.9,9.9H14.9C9.4,45,5,40.6,5,35.1V14.9C5,9.4,9.4,5,14.9,5h20.2
		c5.4,0,9.9,4.4,9.9,9.9V35.1L45,35.1z"/>
	
		<linearGradient id="XMLID_3_" gradientUnits="userSpaceOnUse" x1="25" y1="-143.8543" x2="25" y2="-94.3883" gradientTransform="matrix(1 0 0 -1 0 -94)">
		<stop  offset="0" style="stop-color:#E09B3D"/>
		<stop  offset="0.3" style="stop-color:#C74C4D"/>
		<stop  offset="0.6" style="stop-color:#C21975"/>
		<stop  offset="1" style="stop-color:#7024C4"/>
	</linearGradient>
	<path id="XMLID_81_" class="st1" d="M25,12.1c-7.1,0-12.9,5.8-12.9,12.9S17.9,37.9,25,37.9S37.9,32.1,37.9,25S32.1,12.1,25,12.1z
		 M25,32.9c-4.4,0-7.9-3.5-7.9-7.9s3.5-7.9,7.9-7.9s7.9,3.5,7.9,7.9S29.4,32.9,25,32.9z"/>
	
		<linearGradient id="XMLID_4_" gradientUnits="userSpaceOnUse" x1="38" y1="-143.8543" x2="38" y2="-94.3883" gradientTransform="matrix(1 0 0 -1 0 -94)">
		<stop  offset="0" style="stop-color:#E09B3D"/>
		<stop  offset="0.3" style="stop-color:#C74C4D"/>
		<stop  offset="0.6" style="stop-color:#C21975"/>
		<stop  offset="1" style="stop-color:#7024C4"/>
	</linearGradient>
	<circle id="XMLID_83_" class="st2" cx="38" cy="12.2" r="3.1"/>
</g>
</svg>
